<?xml version="1.0" encoding="utf-8"?>
<!-- Generator: Adobe Illustrator 27.3.1, SVG Export Plug-In . SVG Version: 6.00 Build 0)  -->
<svg version="1.1" id="Layer_1" xmlns="http://www.w3.org/2000/svg" xmlns:xlink="http://www.w3.org/1999/xlink" x="0px" y="0px"
	 viewBox="0 0 1024 1024" style="enable-background:new 0 0 1024 1024;" xml:space="preserve">
<style type="text/css">
	.st0{fill:url(#SVGID_1_);}
	.st1{fill:url(#SVGID_00000128475685455233016670000014467441310247284387_);}
	.st2{display:none;fill:url(#SVGID_00000099638820067579985140000011712140367669408902_);}
</style>
<linearGradient id="SVGID_1_" gradientUnits="userSpaceOnUse" x1="20.3075" y1="863.1463" x2="670.414" y2="487.8072">
	<stop  offset="0.4908" style="stop-color:#0B263E"/>
	<stop  offset="0.5663" style="stop-color:#0F2A42;stop-opacity:0.8517"/>
	<stop  offset="0.6396" style="stop-color:#1B354D;stop-opacity:0.7077"/>
	<stop  offset="0.7121" style="stop-color:#2E495F;stop-opacity:0.5653"/>
	<stop  offset="0.7841" style="stop-color:#4A6479;stop-opacity:0.424"/>
	<stop  offset="0.8557" style="stop-color:#6D879A;stop-opacity:0.2833"/>
	<stop  offset="0.9271" style="stop-color:#98B2C3;stop-opacity:0.1432"/>
	<stop  offset="0.997" style="stop-color:#CBE4F3;stop-opacity:5.804181e-03"/>
	<stop  offset="1" style="stop-color:#CDE6F5;stop-opacity:0"/>
</linearGradient>
<path class="st0" d="M537.5,739.6L413.4,863.7c-33.9,33.9-78.9,52.5-126.9,52.5c-47.9,0-93-18.7-126.9-52.5
	c-33.9-33.9-52.5-78.9-52.5-126.9c0-47.9,18.7-93,52.5-126.9l129.9-129.9c10.4-10.4,21.8-19.3,33.9-26.6c6.2-3.8,12.6-7.1,19.1-10
	c0.1,0,0.2-0.1,0.2-0.1c2.7-1.2,5.3-2.3,8-3.4c0.2-0.1,0.4-0.1,0.6-0.2c0.9-0.3,1.7-0.7,2.6-1c0,0,0,0,0,0c1.7-0.6,3.4-1.2,5.2-1.8
	c0.3-0.1,0.5-0.2,0.8-0.3c0.8-0.3,1.6-0.5,2.4-0.8c0.4-0.1,0.7-0.2,1.1-0.3c1.3-0.4,2.7-0.8,4-1.2c0.4-0.1,0.8-0.2,1.2-0.3
	c0.7-0.2,1.4-0.4,2.1-0.6c0.5-0.1,1-0.3,1.6-0.4c0.7-0.2,1.3-0.3,2-0.5c1-0.2,2.1-0.5,3.1-0.7c0.6-0.1,1.1-0.2,1.7-0.4
	c0.7-0.1,1.3-0.3,2-0.4c0.6-0.1,1.1-0.2,1.7-0.3c0.9-0.2,1.8-0.3,2.8-0.5c0.6-0.1,1.1-0.2,1.7-0.3c0.9-0.1,1.8-0.3,2.7-0.4
	c0.5-0.1,1-0.1,1.4-0.2c0.9-0.1,1.8-0.2,2.7-0.4c0.3,0,0.7-0.1,1-0.1c1.2-0.1,2.4-0.3,3.6-0.4c0.4,0,0.8-0.1,1.2-0.1
	c1-0.1,1.9-0.2,2.9-0.2c0.4,0,0.7-0.1,1.1-0.1c1.2-0.1,2.5-0.2,3.7-0.2c0.3,0,0.5,0,0.8,0c1.1,0,2.1-0.1,3.2-0.1c0.4,0,0.7,0,1.1,0
	c1.3,0,2.6,0,3.8,0c1.2,0,2.5,0,3.7,0c0.5,0,1,0,1.5,0c0.7,0,1.4,0,2.1,0.1c1.6,0.1,3.2,0.1,4.8,0.3c41.8,2.8,82.8,20.2,114.7,52
	c19.7,19.7,34.2,43.1,43,68.7c7,1.1,14.1,1.7,21.3,1.7c30.4,0,59.2-9.9,82.7-28.2c-2.4-7.8-5.2-15.5-8.2-23.1
	c-14.4-35.6-35.6-67.5-62.9-94.8c-27.3-27.3-59.2-48.5-94.8-62.9c-22.7-9.2-46.1-15.4-70.2-18.5c0,0,0,0,0,0
	c-1.4-0.2-2.8-0.4-4.3-0.5c-0.3,0-0.5-0.1-0.8-0.1c-1.3-0.1-2.6-0.3-4-0.4c-0.1,0-0.3,0-0.4,0c-1.5-0.1-3-0.3-4.4-0.4
	c-0.2,0-0.4,0-0.6,0c-1.2-0.1-2.5-0.2-3.7-0.3c-0.3,0-0.7,0-1-0.1c-1.3-0.1-2.6-0.2-4-0.2c-0.1,0-0.2,0-0.4,0
	c-1.4-0.1-2.9-0.1-4.3-0.2c-0.3,0-0.7,0-1,0c-1.1,0-2.2-0.1-3.3-0.1c-0.4,0-0.8,0-1.2,0c-1.4,0-2.8,0-4.3,0c-1.6,0-3.2,0-4.7,0
	c-0.4,0-0.7,0-1.1,0c-1.6,0-3.1,0.1-4.7,0.1c-0.1,0-0.2,0-0.3,0c-1.5,0.1-3,0.1-4.5,0.2c-0.3,0-0.7,0-1,0.1
	c-1.6,0.1-3.2,0.2-4.7,0.3c-0.1,0-0.2,0-0.3,0c-1.5,0.1-3,0.2-4.5,0.4c-0.3,0-0.5,0-0.8,0.1c-1.6,0.1-3.2,0.3-4.8,0.5
	c-0.1,0-0.2,0-0.3,0c-1.6,0.2-3.1,0.4-4.7,0.6c-0.2,0-0.4,0-0.5,0.1c-1.6,0.2-3.3,0.4-4.9,0.7c-0.1,0-0.2,0-0.2,0
	c-1.6,0.2-3.3,0.5-4.9,0.8c-0.1,0-0.1,0-0.2,0c-1.7,0.3-3.4,0.6-5.1,0.9c0,0-0.1,0-0.1,0c-3.4,0.6-6.8,1.3-10.2,2.1c0,0,0,0-0.1,0
	c-3.4,0.8-6.8,1.6-10.2,2.5c0,0,0,0,0,0c-3.4,0.9-6.8,1.8-10.1,2.9c0,0,0,0,0,0c-8.3,2.5-16.5,5.4-24.7,8.7
	c-35.6,14.4-67.5,35.6-94.8,62.9L83.9,534.3c-27.3,27.3-48.5,59.2-62.9,94.8C7.1,663.4,0,699.7,0,736.9s7.1,73.5,21,107.8
	c14.4,35.6,35.6,67.5,62.9,94.8c27.3,27.3,59.2,48.5,94.8,62.9c34.3,13.9,70.6,21,107.8,21s73.5-7.1,107.8-21
	c35.6-14.4,67.5-35.6,94.8-62.9l129.9-129.9c20.4-20.4,37.3-43.3,50.6-68.4c-20.4,3.9-41.1,5.8-62.1,5.8
	C583.8,747.1,560.4,744.6,537.5,739.6z"/>
<linearGradient id="SVGID_00000036228145095407717910000005860151696124207781_" gradientUnits="userSpaceOnUse" x1="1024" y1="350.9197" x2="333.7579" y2="350.9197">
	<stop  offset="0.5873" style="stop-color:#1985A1"/>
	<stop  offset="0.5908" style="stop-color:#1B86A2;stop-opacity:0.9916"/>
	<stop  offset="0.6993" style="stop-color:#5AA8BF;stop-opacity:0.7285"/>
	<stop  offset="0.7983" style="stop-color:#8BC3D6;stop-opacity:0.4886"/>
	<stop  offset="0.8846" style="stop-color:#AFD6E7;stop-opacity:0.2796"/>
	<stop  offset="0.9547" style="stop-color:#C5E2F1;stop-opacity:0.1097"/>
	<stop  offset="1" style="stop-color:#CDE6F5;stop-opacity:0"/>
</linearGradient>
<path style="fill:url(#SVGID_00000036228145095407717910000005860151696124207781_);" d="M1003,178.2
	c-14.4-35.6-35.6-67.5-62.9-94.8c-27.3-27.3-59.2-48.5-94.8-62.9c-34.3-13.9-70.6-21-107.8-21c-37.2,0-73.5,7.1-107.8,21
	c-35.6,14.4-67.5,35.6-94.8,62.9L404.9,213.3c-20.4,20.4-37.3,43.3-50.6,68.4c20.4-3.9,41.1-5.8,62.1-5.8c23.7,0,47.1,2.5,70,7.4
	l124.1-124.1c33.9-33.9,78.9-52.5,126.9-52.5c47.9,0,93,18.7,126.9,52.5c69.9,69.9,69.9,183.8,0,253.7L734.4,542.7
	c-35,35-80.9,52.5-126.9,52.5c-45.9,0-91.9-17.5-126.9-52.5c-19.7-19.7-34.2-43.1-43-68.7c-7-1.1-14.1-1.7-21.3-1.7
	c-30.4,0-59.2,9.9-82.7,28.2c2.4,7.8,5.2,15.5,8.2,23.1c14.4,35.6,35.6,67.5,62.9,94.8c27.3,27.3,59.2,48.5,94.8,62.9
	c34.3,13.9,70.6,21,107.8,21s73.5-7.1,107.8-21c35.6-14.4,67.5-35.6,94.8-62.9l129.9-129.9c27.3-27.3,48.5-59.2,62.9-94.8
	c13.9-34.3,21-70.6,21-107.8C1024,248.8,1016.9,212.5,1003,178.2z"/>
<radialGradient id="SVGID_00000142147649369344265100000015045643305711117986_" cx="344.5103" cy="379.1752" r="112.467" gradientTransform="matrix(-0.4876 -0.5752 1.2662 -1.0807 57.9384 966.0856)" gradientUnits="userSpaceOnUse">
	<stop  offset="8.688333e-02" style="stop-color:#0B263E"/>
	<stop  offset="0.5674" style="stop-color:#0B263E"/>
	<stop  offset="1" style="stop-color:#CDE6F5;stop-opacity:0"/>
</radialGradient>
<path style="display:none;fill:url(#SVGID_00000142147649369344265100000015045643305711117986_);" d="M459.3,279.5
	c-19.2-21.9-74.8-4.4-124.1,39s-73.6,96.3-54.4,118.2c19.2,21.9,74.8,4.4,124.1-39S478.6,301.4,459.3,279.5z"/>
</svg>
